# xmcd CD database file
#
# Track frame offsets:
#	150
#	16452
#	37430
#	58002
#	81317
#	98904
#	114352
#	132472
#	152570
#	164867
#	190047
#	203370
#
# Disc length: 2967 seconds
#
# Revision: 0
# Processed by: cddbd v1.5.1PL0 Copyright (c) Steve Scherf et al.
# Submitted via: CDex 1.51
#
DISCID=a40b950c
DTITLE=Robert Johnson - Dealin' With The Devil
DYEAR=2000
DGENRE=Blues
TTITLE0=Walkin' Blues - Corey Harris
TTITLE1=When You Got A Good Friend - Debbie Davies
TTITLE2=I Believe I'll Dust My Broom - Eddie Kirkland
TTITLE3=Ramblin' On My Mind - Kris Wiley
TTITLE4=Last Fair Deal Gone Down - Dave Van Ronk
TTITLE5=I'm A Steady Rollin' Man - Kenny Neal
TTITLE6=From Four Until Late - Sue Foley
TTITLE7=Come On In My Kitchen - Josh White Jr.
TTITLE8=32-20 Blues - Paul Geremia
TTITLE9=Sweet Home Chicago - Pinetop Perkins
TTITLE10=Stones In My Passway - Guy Davis
TTITLE11=Preachin' Blues - Colin Linden
EXTD=YEAR: 2000
EXTT0=
EXTT1=
EXTT2=
EXTT3=
EXTT4=
EXTT5=
EXTT6=
EXTT7=
EXTT8=
EXTT9=
EXTT10=
EXTT11=
PLAYORDER=
